<svg xmlns="http://www.w3.org/2000/svg" viewBox="58 -56 470 496" fill="none" role="img" aria-label="Unicorn pawing the ground, asset coins scattering from the hoof">
  <defs>
    <radialGradient id="aura" cx="50%" cy="50%" r="50%" fx="68%" fy="30%">
      <stop offset="0.0%" stop-color="#ffe9fa" stop-opacity="0.17"/>
      <stop offset="9.1%" stop-color="#ffbbed" stop-opacity="0.1658"/>
      <stop offset="18.2%" stop-color="#ff8de0" stop-opacity="0.1537"/>
      <stop offset="27.3%" stop-color="#ff5ed2" stop-opacity="0.1348"/>
      <stop offset="36.4%" stop-color="#fc38c8" stop-opacity="0.1111"/>
      <stop offset="45.5%" stop-color="#e93bd0" stop-opacity="0.0849"/>
      <stop offset="54.5%" stop-color="#d63fd8" stop-opacity="0.0589"/>
      <stop offset="63.6%" stop-color="#c442e0" stop-opacity="0.0358"/>
      <stop offset="72.7%" stop-color="#b146e8" stop-opacity="0.0178"/>
      <stop offset="81.8%" stop-color="#9e49ef" stop-opacity="0.0061"/>
      <stop offset="90.9%" stop-color="#8b4df7" stop-opacity="0.0009"/>
      <stop offset="100.0%" stop-color="#7850ff" stop-opacity="0"/>
    </radialGradient>
    <radialGradient id="coinFace" cx="38%" cy="32%" r="72%">
      <stop offset="0%" stop-color="#4a3552"/>
      <stop offset="68%" stop-color="#271d31"/>
      <stop offset="100%" stop-color="#181022"/>
    </radialGradient>
    <radialGradient id="pool" cx="50%" cy="50%" r="50%">
      <stop offset="0.0%" stop-color="#ffe9fa" stop-opacity="1"/>
      <stop offset="9.1%" stop-color="#ffbbed" stop-opacity="0.9754"/>
      <stop offset="18.2%" stop-color="#ff8de0" stop-opacity="0.9041"/>
      <stop offset="27.3%" stop-color="#ff5ed2" stop-opacity="0.793"/>
      <stop offset="36.4%" stop-color="#fc38c8" stop-opacity="0.6534"/>
      <stop offset="45.5%" stop-color="#e93bd0" stop-opacity="0.4994"/>
      <stop offset="54.5%" stop-color="#d63fd8" stop-opacity="0.3467"/>
      <stop offset="63.6%" stop-color="#c442e0" stop-opacity="0.2107"/>
      <stop offset="72.7%" stop-color="#b146e8" stop-opacity="0.1045"/>
      <stop offset="81.8%" stop-color="#9e49ef" stop-opacity="0.0361"/>
      <stop offset="90.9%" stop-color="#8b4df7" stop-opacity="0.0052"/>
      <stop offset="100.0%" stop-color="#7850ff" stop-opacity="0"/>
    </radialGradient>
    <radialGradient id="spark" cx="50%" cy="50%" r="50%">
      <stop offset="0.0%" stop-color="#ffe9fa" stop-opacity="1"/>
      <stop offset="9.1%" stop-color="#ffbbed" stop-opacity="0.5621"/>
      <stop offset="18.2%" stop-color="#ff8de0" stop-opacity="0.315"/>
      <stop offset="27.3%" stop-color="#ff5ed2" stop-opacity="0.2193"/>
      <stop offset="36.4%" stop-color="#fc38c8" stop-opacity="0.1619"/>
      <stop offset="45.5%" stop-color="#e93bd0" stop-opacity="0.1169"/>
      <stop offset="54.5%" stop-color="#d63fd8" stop-opacity="0.0787"/>
      <stop offset="63.6%" stop-color="#c442e0" stop-opacity="0.0471"/>
      <stop offset="72.7%" stop-color="#b146e8" stop-opacity="0.0233"/>
      <stop offset="81.8%" stop-color="#9e49ef" stop-opacity="0.0082"/>
      <stop offset="90.9%" stop-color="#8b4df7" stop-opacity="0.0013"/>
      <stop offset="100.0%" stop-color="#7850ff" stop-opacity="0"/>
    </radialGradient>
    <linearGradient id="streak" x1="0" y1="0" x2="1" y2="0">
      <stop offset="0%" stop-color="#ffe9fa" stop-opacity="0"/>
      <stop offset="30%" stop-color="#ffbdee" stop-opacity="0.30"/>
      <stop offset="50%" stop-color="#ffffff" stop-opacity="0.85"/>
      <stop offset="70%" stop-color="#ffbdee" stop-opacity="0.30"/>
      <stop offset="100%" stop-color="#ffe9fa" stop-opacity="0"/>
    </linearGradient>
    <!-- The whole horse is one colour, so anything that overlaps anything else
         simply disappears — the mane sank into the neck the moment the
         gradients came off. The reference solves this the same way every flat
         mark does: it does not overlap, it leaves air. These are those gaps,
         cut as black strokes through the finished silhouette, which is far
         less brittle than trying to author forty non-overlapping outlines. -->
    <mask id="bodyCut" maskUnits="userSpaceOnUse" x="50" y="-60" width="490" height="500">
      <rect x="50" y="-60" width="490" height="500" fill="#fff"/>
      <g stroke="#000" fill="none" stroke-linecap="round">
        <!-- Only three gaps now, and each one separates two whole masses.
             The previous pass ran a thin stroke under every mane strand and
             across the girth and haunch, and at size those read as scratches
             scribbled on the animal rather than as drawing. Where the mane and
             the tail needed to read, the answer was to reshape them so they
             overhang the silhouette — not to score lines into it. -->
        <path d="M152 158 C 138 186, 134 218, 142 246" stroke-width="8"/>
        <!-- and between each near leg and the far one behind it -->
        <path d="M338 222 C 344 272, 342 336, 341 400" stroke-width="5"/>
        <path d="M206 200 C 186 262, 197 336, 200 400" stroke-width="5"/>
      </g>
    </mask>
    <mask id="headCut" maskUnits="userSpaceOnUse" x="396" y="-4" width="112" height="146">
      <rect x="396" y="-4" width="112" height="146" fill="#fff"/>
      <!-- The eye is a hole, and it has to be a big one. In the reference the
           eye is the largest piece of negative space on the head — it is what
           makes the thing a character rather than a silhouette. -->
      <ellipse id="eye" cx="446" cy="66" rx="9" ry="10.5" transform="rotate(-16 446 66)" fill="#000"/>
      <circle cx="484" cy="118" r="3.8" fill="#000"/>
      <path d="M418 28 L411 6 L430 25 Z" fill="#000"/>
      <!-- The jaw gap belongs here, not in #bodyCut. #bodyCut sits on an
           ancestor that does not rotate, so with the head nodding the gap
           stayed put while the jaw swung through it — cutting the cheek in
           the wrong place at one end of the nod and not at all at the other.
           #headCut is referenced from inside the rotating group, so it
           follows the head. -->
      <path d="M424 60 C 431 84, 445 104, 466 116" stroke="#000" stroke-width="5"
            fill="none" stroke-linecap="round"/>
    </mask>
    <!-- Two notches, each biting in from the trailing edge and stopping short
         of the leading one. Cut all the way across — as the first pass did —
         and the horn stops being a horn and becomes three floating shards. -->
    <mask id="hornCut" maskUnits="userSpaceOnUse" x="414" y="-52" width="70" height="96">
      <rect x="414" y="-52" width="70" height="96" fill="#fff"/>
      <path d="M452 8 L440.5 12.5 L442.5 16.5 L453 12 Z" fill="#000"/>
      <path d="M460 -12 L450.5 -8 L452.5 -4 L461 -8 Z" fill="#000"/>
    </mask>
    <g id="gl-AAPL"><path d="M12.152 6.896c-.948 0-2.415-1.078-3.96-1.04-2.04.027-3.91 1.183-4.961 3.014-2.117 3.675-.546 9.103 1.519 12.09 1.013 1.454 2.208 3.09 3.792 3.039 1.52-.065 2.09-.987 3.935-.987 1.831 0 2.35.987 3.96.948 1.637-.026 2.676-1.48 3.676-2.948 1.156-1.688 1.636-3.325 1.662-3.415-.039-.013-3.182-1.221-3.22-4.857-.026-3.04 2.48-4.494 2.597-4.559-1.429-2.09-3.623-2.324-4.39-2.376-2-.156-3.675 1.09-4.61 1.09zM15.53 3.83c.843-1.012 1.4-2.427 1.245-3.83-1.207.052-2.662.805-3.532 1.818-.78.896-1.454 2.338-1.273 3.714 1.338.104 2.715-.688 3.559-1.701"/></g>
    <g id="gl-AMD"><path d="M18.324 9.137l1.559 1.56h2.556v2.557L24 14.814V9.137zM2 9.52l-2 4.96h1.309l.37-.982H3.9l.408.982h1.338L3.432 9.52zm4.209 0v4.955h1.238v-3.092l1.338 1.562h.188l1.338-1.556v3.091h1.238V9.52H10.47l-1.592 1.845L7.287 9.52zm6.283 0v4.96h2.057c1.979 0 2.88-1.046 2.88-2.472 0-1.36-.937-2.488-2.747-2.488zm1.237.91h.792c1.17 0 1.63.711 1.63 1.57 0 .728-.372 1.572-1.616 1.572h-.806zm-10.985.273l.791 1.932H2.008zm17.137.307l-1.604 1.603v2.25h2.246l1.604-1.607h-2.246z"/></g>
    <g id="gl-AMZN"><path d="M.045 18.02c.072-.116.187-.124.348-.022 3.636 2.11 7.594 3.166 11.87 3.166 2.852 0 5.668-.533 8.447-1.595l.315-.14c.138-.06.234-.1.293-.13.226-.088.39-.046.525.13.12.174.09.336-.12.48-.256.19-.6.41-1.006.654-1.244.743-2.64 1.316-4.185 1.726a17.617 17.617 0 01-10.951-.577 17.88 17.88 0 01-5.43-3.35c-.1-.074-.151-.15-.151-.22 0-.047.021-.09.051-.13zm6.565-6.218c0-1.005.247-1.863.743-2.577.495-.71 1.17-1.25 2.04-1.615.796-.335 1.756-.575 2.912-.72.39-.046 1.033-.103 1.92-.174v-.37c0-.93-.105-1.558-.3-1.875-.302-.43-.78-.65-1.44-.65h-.182c-.48.046-.896.196-1.246.46-.35.27-.575.63-.675 1.096-.06.3-.206.465-.435.51l-2.52-.315c-.248-.06-.372-.18-.372-.39 0-.046.007-.09.022-.15.247-1.29.855-2.25 1.82-2.88.976-.616 2.1-.975 3.39-1.05h.54c1.65 0 2.957.434 3.888 1.29.135.15.27.3.405.48.12.165.224.314.283.45.075.134.15.33.195.57.06.254.105.42.135.51.03.104.062.3.076.615.01.313.02.493.02.553v5.28c0 .376.06.72.165 1.036.105.313.21.54.315.674l.51.674c.09.136.136.256.136.36 0 .12-.06.226-.18.314-1.2 1.05-1.86 1.62-1.963 1.71-.165.135-.375.15-.63.045a6.062 6.062 0 01-.526-.496l-.31-.347a9.391 9.391 0 01-.317-.42l-.3-.435c-.81.886-1.603 1.44-2.4 1.665-.494.15-1.093.227-1.83.227-1.11 0-2.04-.343-2.76-1.034-.72-.69-1.08-1.665-1.08-2.94l-.05-.076zm3.753-.438c0 .566.14 1.02.425 1.364.285.34.675.512 1.155.512.045 0 .106-.007.195-.02.09-.016.134-.023.166-.023.614-.16 1.08-.553 1.424-1.178.165-.28.285-.58.36-.91.09-.32.12-.59.135-.8.015-.195.015-.54.015-1.005v-.54c-.84 0-1.484.06-1.92.18-1.275.36-1.92 1.17-1.92 2.43l-.035-.02zm9.162 7.027c.03-.06.075-.11.132-.17.362-.243.714-.41 1.05-.5a8.094 8.094 0 011.612-.24c.14-.012.28 0 .41.03.65.06 1.05.168 1.172.33.063.09.099.228.099.39v.15c0 .51-.149 1.11-.424 1.8-.278.69-.664 1.248-1.156 1.68-.073.06-.14.09-.197.09-.03 0-.06 0-.09-.012-.09-.044-.107-.12-.064-.24.54-1.26.806-2.143.806-2.64 0-.15-.03-.27-.087-.344-.145-.166-.55-.257-1.224-.257-.243 0-.533.016-.87.046-.363.045-.7.09-1 .135-.09 0-.148-.014-.18-.044-.03-.03-.036-.047-.02-.077 0-.017.006-.03.02-.063v-.06z"/></g>
    <g id="gl-BTC"><path d="M23.638 14.904c-1.602 6.43-8.113 10.34-14.542 8.736C2.67 22.05-1.244 15.525.362 9.105 1.962 2.67 8.475-1.243 14.9.358c6.43 1.605 10.342 8.115 8.738 14.548v-.002zm-6.35-4.613c.24-1.59-.974-2.45-2.64-3.03l.54-2.153-1.315-.33-.525 2.107c-.345-.087-.705-.167-1.064-.25l.526-2.127-1.32-.33-.54 2.165c-.285-.067-.565-.132-.84-.2l-1.815-.45-.35 1.407s.975.225.955.236c.535.136.63.486.615.766l-1.477 5.92c-.075.166-.24.406-.614.314.015.02-.96-.24-.96-.24l-.66 1.51 1.71.426.93.242-.54 2.19 1.32.327.54-2.17c.36.1.705.19 1.05.273l-.51 2.154 1.32.33.545-2.19c2.24.427 3.93.257 4.64-1.774.57-1.637-.03-2.58-1.217-3.196.854-.193 1.5-.76 1.68-1.93h.01zm-3.01 4.22c-.404 1.64-3.157.75-4.05.53l.72-2.9c.896.23 3.757.67 3.33 2.37zm.41-4.24c-.37 1.49-2.662.735-3.405.55l.654-2.64c.744.18 3.137.524 2.75 2.084v.006z"/></g>
    <g id="gl-COIN"><path d="M4.844 11.053c-.872 0-1.553.662-1.553 1.548s.664 1.542 1.553 1.542c.889 0 1.564-.667 1.564-1.547 0-.875-.664-1.543-1.564-1.543zm.006 2.452c-.497 0-.86-.386-.86-.904 0-.523.357-.909.854-.909.502 0 .866.392.866.91 0 .517-.364.903-.86.903zm1.749-1.778h.433v2.36h.693V11.11H6.599zm-5.052-.035c.364 0 .653.224.762.558h.734c-.133-.713-.722-1.197-1.49-1.197-.872 0-1.553.662-1.553 1.548 0 .887.664 1.543 1.553 1.543.75 0 1.351-.484 1.484-1.203h-.728a.78.78 0 01-.756.564c-.502 0-.855-.386-.855-.904 0-.523.347-.909.85-.909zm18.215.622l-.508-.075c-.242-.035-.415-.115-.415-.305 0-.207.225-.31.53-.31.336 0 .55.143.595.379h.67c-.075-.599-.537-.95-1.247-.95-.733 0-1.218.375-1.218.904 0 .506.317.8.958.892l.508.075c.249.034.387.132.387.316 0 .236-.242.334-.577.334-.41 0-.641-.167-.676-.42h-.681c.064.581.52.99 1.35.99.757 0 1.26-.346 1.26-.938 0-.53-.364-.806-.936-.892zM7.378 9.885a.429.429 0 00-.444.437c0 .254.19.438.444.438a.429.429 0 00.445-.438.429.429 0 00-.445-.437zm10.167 2.245c0-.645-.392-1.076-1.224-1.076-.785 0-1.224.397-1.31 1.007h.687c.035-.236.22-.432.612-.432.352 0 .525.155.525.345 0 .248-.317.311-.71.351-.531.058-1.19.242-1.19.933 0 .535.4.88 1.034.88.497 0 .809-.207.965-.535.023.293.242.483.548.483h.404v-.616h-.34v-1.34zm-.68.748c0 .397-.347.69-.769.69-.26 0-.48-.11-.48-.34 0-.293.353-.373.676-.408.312-.028.485-.097.572-.23zm-3.679-1.825c-.386 0-.71.162-.94.432V9.856h-.693v4.23h.68v-.391c.232.282.56.449.953.449.832 0 1.461-.656 1.461-1.543 0-.886-.64-1.548-1.46-1.548zm-.103 2.452c-.497 0-.86-.386-.86-.904 0-.517.369-.909.865-.909.503 0 .855.386.855.91 0 .517-.364.903-.86.903zm-3.187-2.452c-.45 0-.745.184-.919.443v-.385H8.29v2.975h.693v-1.617c0-.455.289-.777.716-.777.398 0 .647.282.647.69v1.704h.692v-1.755c0-.748-.386-1.278-1.142-1.278zM24 12.503c0-.851-.624-1.45-1.46-1.45-.89 0-1.542.668-1.542 1.548 0 .927.698 1.543 1.553 1.543.722 0 1.287-.426 1.432-1.03h-.722c-.104.264-.358.414-.699.414-.445 0-.78-.276-.854-.76H24v-.264zm-2.252-.23c.11-.414.422-.615.78-.615.392 0 .693.224.762.615Z"/></g>
    <g id="gl-ETH"><path d="M11.944 17.97L4.58 13.62 11.943 24l7.37-10.38-7.372 4.35h.003zM12.056 0L4.69 12.223l7.365 4.354 7.365-4.35L12.056 0z"/></g>
    <g id="gl-GOOGL"><path d="M12.48 10.92v3.28h7.84c-.24 1.84-.853 3.187-1.787 4.133-1.147 1.147-2.933 2.4-6.053 2.4-4.827 0-8.6-3.893-8.6-8.72s3.773-8.72 8.6-8.72c2.6 0 4.507 1.027 5.907 2.347l2.307-2.307C18.747 1.44 16.133 0 12.48 0 5.867 0 .307 5.387.307 12s5.56 12 12.173 12c3.573 0 6.267-1.173 8.373-3.36 2.16-2.16 2.84-5.213 2.84-7.667 0-.76-.053-1.467-.173-2.053H12.48z"/></g>
    <g id="gl-META"><path d="M6.915 4.03c-1.968 0-3.683 1.28-4.871 3.113C.704 9.208 0 11.883 0 14.449c0 .706.07 1.369.21 1.973a6.624 6.624 0 0 0 .265.86 5.297 5.297 0 0 0 .371.761c.696 1.159 1.818 1.927 3.593 1.927 1.497 0 2.633-.671 3.965-2.444.76-1.012 1.144-1.626 2.663-4.32l.756-1.339.186-.325c.061.1.121.196.183.3l2.152 3.595c.724 1.21 1.665 2.556 2.47 3.314 1.046.987 1.992 1.22 3.06 1.22 1.075 0 1.876-.355 2.455-.843a3.743 3.743 0 0 0 .81-.973c.542-.939.861-2.127.861-3.745 0-2.72-.681-5.357-2.084-7.45-1.282-1.912-2.957-2.93-4.716-2.93-1.047 0-2.088.467-3.053 1.308-.652.57-1.257 1.29-1.82 2.05-.69-.875-1.335-1.547-1.958-2.056-1.182-.966-2.315-1.303-3.454-1.303zm10.16 2.053c1.147 0 2.188.758 2.992 1.999 1.132 1.748 1.647 4.195 1.647 6.4 0 1.548-.368 2.9-1.839 2.9-.58 0-1.027-.23-1.664-1.004-.496-.601-1.343-1.878-2.832-4.358l-.617-1.028a44.908 44.908 0 0 0-1.255-1.98c.07-.109.141-.224.211-.327 1.12-1.667 2.118-2.602 3.358-2.602zm-10.201.553c1.265 0 2.058.791 2.675 1.446.307.327.737.871 1.234 1.579l-1.02 1.566c-.757 1.163-1.882 3.017-2.837 4.338-1.191 1.649-1.81 1.817-2.486 1.817-.524 0-1.038-.237-1.383-.794-.263-.426-.464-1.13-.464-2.046 0-2.221.63-4.535 1.66-6.088.454-.687.964-1.226 1.533-1.533a2.264 2.264 0 0 1 1.088-.285z"/></g>
    <g id="gl-NFLX"><path d="M5.398 0v.006c3.028 8.556 5.37 15.175 8.348 23.596 2.344.058 4.85.398 4.854.398-2.8-7.924-5.923-16.747-8.487-24zm8.489 0v9.63L18.6 22.951c-.043-7.86-.004-15.913.002-22.95zM5.398 1.05V24c1.873-.225 2.81-.312 4.715-.398v-9.22z"/></g>
    <g id="gl-NVDA"><path d="M8.948 8.798v-1.43a6.7 6.7 0 0 1 .424-.018c3.922-.124 6.493 3.374 6.493 3.374s-2.774 3.851-5.75 3.851c-.398 0-.787-.062-1.158-.185v-4.346c1.528.185 1.837.857 2.747 2.385l2.04-1.714s-1.492-1.952-4-1.952a6.016 6.016 0 0 0-.796.035m0-4.735v2.138l.424-.027c5.45-.185 9.01 4.47 9.01 4.47s-4.08 4.964-8.33 4.964c-.37 0-.733-.035-1.095-.097v1.325c.3.035.61.062.91.062 3.957 0 6.82-2.023 9.593-4.408.459.371 2.34 1.263 2.73 1.652-2.633 2.208-8.772 3.984-12.253 3.984-.335 0-.653-.018-.971-.053v1.864H24V4.063zm0 10.326v1.131c-3.657-.654-4.673-4.46-4.673-4.46s1.758-1.944 4.673-2.262v1.237H8.94c-1.528-.186-2.73 1.245-2.73 1.245s.68 2.412 2.739 3.11M2.456 10.9s2.164-3.197 6.5-3.533V6.201C4.153 6.59 0 10.653 0 10.653s2.35 6.802 8.948 7.42v-1.237c-4.84-.6-6.492-5.936-6.492-5.936z"/></g>
    <g id="gl-TSLA"><path d="M12 5.362l2.475-3.026s4.245.09 8.471 2.054c-1.082 1.636-3.231 2.438-3.231 2.438-.146-1.439-1.154-1.79-4.354-1.79L12 24 8.619 5.034c-3.18 0-4.188.354-4.335 1.792 0 0-2.146-.795-3.229-2.43C5.28 2.431 9.525 2.34 9.525 2.34L12 5.362l-.004.002H12v-.002zm0-3.899c3.415-.03 7.326.528 11.328 2.28.535-.968.672-1.395.672-1.395C19.625.612 15.528.015 12 0 8.472.015 4.375.61 0 2.349c0 0 .195.525.672 1.396C4.674 1.989 8.585 1.435 12 1.46v.003z"/></g>
  </defs>

  <style>
    @keyframes blink{0%,95%,100%{transform:scaleY(1)}97.5%{transform:scaleY(.08)}}
    #eye{transform-box:fill-box;transform-origin:center;animation:blink 6.5s ease-in-out infinite}

    /* Wind. Each strand pivots about its own root on the crest, so the hair
       swings from where it is attached instead of sliding around — which is
       what the alternative, morphing the path data, would have looked like,
       at the price of re-tessellating four paths sixty times a second.

       A rotation about an arbitrary point without touching transform-origin:
       translate to the pivot, rotate, translate back. On an SVG element a CSS
       px is one user unit, so these are the same numbers as the path data.

       One duration for all four with the delay staggered down the neck, which
       is what makes it a travelling wave rather than four strands flapping in
       unison. Amplitude falls off toward the shoulder, where a real mane is
       shorter and heavier. */
    @keyframes w1{0%,100%{transform:translate(420px,34px) rotate(-2.1deg) translate(-420px,-34px)}
                   50%{transform:translate(420px,34px) rotate(2.3deg) translate(-420px,-34px)}}
    @keyframes w2{0%,100%{transform:translate(400px,50px) rotate(-1.8deg) translate(-400px,-50px)}
                   50%{transform:translate(400px,50px) rotate(2deg) translate(-400px,-50px)}}
    @keyframes w3{0%,100%{transform:translate(376px,70px) rotate(-1.5deg) translate(-376px,-70px)}
                   50%{transform:translate(376px,70px) rotate(1.7deg) translate(-376px,-70px)}}
    @keyframes w4{0%,100%{transform:translate(350px,92px) rotate(-1.1deg) translate(-350px,-92px)}
                   50%{transform:translate(350px,92px) rotate(1.3deg) translate(-350px,-92px)}}
    /* the tail answers the same wind, at half the amplitude and off-tempo —
       a still tail beside a moving mane looks broken */
    @keyframes wt{0%,100%{transform:translate(152px,150px) rotate(-1.2deg) translate(-152px,-150px)}
                   50%{transform:translate(152px,150px) rotate(1.2deg) translate(-152px,-150px)}}

    /* Standing dead still between paws is the other half of looking fake.
       This is a breath and a weight shift, nothing more: a fraction of a
       percent of vertical scale about the ground line, and a pixel of sway,
       on two periods that do not divide into each other so the pair never
       repeats the same combination twice in a row.

       It lives on a wrapper because the strike writes its own transform
       attribute to #nk-rig for the impact dip — a CSS transform on the same
       element would silently win and the dip would vanish. */
    @keyframes idle{0%{transform:translate(0,0) scaleY(1)}
                     50%{transform:translate(-1.1px,-0.6px) scaleY(1.006)}
                     100%{transform:translate(0,0) scaleY(1)}}
    #nk-idle{transform-origin:296px 420px;transform-box:view-box;
      animation:idle 5.3s cubic-bezier(.45,0,.55,1) infinite;animation-play-state:paused}
    svg.nk-live #nk-idle{animation-play-state:running}

    #nk-mane path,#nk-tail{animation-duration:6.4s;animation-timing-function:cubic-bezier(.45,0,.55,1);
      animation-iteration-count:infinite;animation-direction:alternate;animation-play-state:paused}
    .w1{animation-name:w1;animation-delay:0s}
    .w2{animation-name:w2;animation-delay:-.4s}
    .w3{animation-name:w3;animation-delay:-.8s}
    .w4{animation-name:w4;animation-delay:-1.2s}
    #nk-tail{animation-name:wt;animation-duration:8.2s;animation-delay:-2s}
    /* only while the mascot is actually on screen — the strike loop already
       gates itself the same way and toggles this class */
    svg.nk-live #nk-mane path,svg.nk-live #nk-tail{animation-play-state:running}

    @media (prefers-reduced-motion:reduce){
      #eye{animation:none}
      #nk-mane path,#nk-tail,#nk-idle{animation:none}
    }
  </style>

  <!-- Ambient: one wide pool, reaching zero exactly at its own rim. The old
       aura ran a 58% gradient inside a 50% ellipse, so it was still at alpha
       .021 when the shape ended — a visible disc, which is what it looked
       like.

       Its focal point is pulled up and right (fx/fy on the gradient) so the
       brightest part of the pool sits under the horn. There is one light in
       this picture and it is on the horn; ambient centred on the body would
       contradict it. Using the focus rather than a second ellipse keeps the
       falloff terminating on the shape, so nothing can reach the frame edge. -->
  <ellipse cx="292" cy="204" rx="226" ry="230" fill="url(#aura)"/>

  <!-- Ground: light pools on a floor in tiers, widest and faintest first,
       offset toward the planted hoof rather than centred under nothing. -->
  <ellipse cx="268" cy="420" rx="196" ry="20" fill="url(#pool)" opacity="0.13"/>
  <ellipse cx="288" cy="421" rx="116" ry="15" fill="url(#pool)" opacity="0.15"/>
  <ellipse cx="325" cy="423" rx="58" ry="10" fill="url(#pool)" opacity="0.20"/>

  <!-- sparks, kept off the main read -->
  <g fill="#ffd9f4">
    <path d="M140 70 l3.5 9 l9 3.5 l-9 3.5 l-3.5 9 l-3.5 -9 l-9 -3.5 l9 -3.5 z" opacity="0.5"/>
    <path d="M498 104 l2.8 7 l7 2.8 l-7 2.8 l-2.8 7 l-2.8 -7 l-7 -2.8 l7 -2.8 z" opacity="0.42"/>
    <path d="M104 268 l2.4 6 l6 2.4 l-6 2.4 l-2.4 6 l-2.4 -6 l-6 -2.4 l6 -2.4 z" opacity="0.32"/>
    <path d="M482 286 l3 7.5 l7.5 3 l-7.5 3 l-3 7.5 l-3 -7.5 l-7.5 -3 l7.5 -3 z" opacity="0.36"/>
    <path d="M232 22 l2.6 6.5 l6.5 2.6 l-6.5 2.6 l-2.6 6.5 l-2.6 -6.5 l-6.5 -2.6 l6.5 -2.6 z" opacity="0.4"/>
  </g>

  <g id="nk-idle">
  <g id="nk-rig">
  <g mask="url(#bodyCut)">

    <!-- ================= tail =================
         Three separate strands with air between them, each wide at the dock
         and tapering to a point. The old tail was three near-identical shapes
         stacked with a gradient each, which only reads as a tail because of
         the shading; strip the shading and it is one blob. In the reference
         every hair group is its own ribbon and the gaps are the drawing. -->
    <g id="nk-tail">
      <path d="M146 146
               C 122 168, 100 208, 88 254
               C 76 300, 74 342, 84 372
               C 86 336, 94 300, 106 270
               C 98 302, 96 332, 100 356
               C 110 320, 122 288, 134 262
               C 130 292, 130 316, 134 336
               C 142 300, 152 264, 158 232
               C 164 200, 166 170, 162 152 Z" fill="#ff37c7"/>
    </g>

    <!-- ================= off-side legs ================= -->
    <g opacity="1">
    <path d="M186.0 186.3 L175.5 287.4 L198.2 370.9 L202.6 396.9 L219.4 395.1 L217.8 367.1 L204.5 288.6 L244.0 201.7 Z" fill="#ff37c7"/>
      <circle cx="215.0" cy="194.0" r="30.0" fill="#ff37c7"/>
      <circle cx="190.0" cy="288.0" r="14.5" fill="#ff37c7"/>
      <circle cx="208.0" cy="369.0" r="10.0" fill="#ff37c7"/>
      <circle cx="211.0" cy="396.0" r="8.5" fill="#ff37c7"/>
      <path d="M206.0 393.5 h20.0 l2.0 17.0 q0 5 -5 5 h-16.0 q-5 0 -5 -5 z" fill="#ff37c7"/>
    <path d="M323.0 199.5 L339.5 292.3 L341.0 368.7 L341.5 395.7 L356.5 396.3 L359.0 369.3 L364.5 291.7 L369.0 196.5 Z" fill="#ff37c7"/>
      <circle cx="346.0" cy="198.0" r="23.0" fill="#ff37c7"/>
      <circle cx="352.0" cy="292.0" r="12.5" fill="#ff37c7"/>
      <circle cx="350.0" cy="369.0" r="9.0" fill="#ff37c7"/>
      <circle cx="349.0" cy="396.0" r="7.5" fill="#ff37c7"/>
      <path d="M339.0 393.5 h20.0 l2.0 17.0 q0 5 -5 5 h-16.0 q-5 0 -5 -5 z" fill="#ff37c7"/>
    </g>

    <!-- ================= near hind leg ================= -->
    <path d="M156.8 179.6 L135.5 283.9 L162.3 370.3 L167.6 397.2 L184.4 394.8 L181.7 365.7 L164.5 286.1 L213.2 200.4 Z" fill="#ff37c7"/>
      <circle cx="185.0" cy="190.0" r="30.0" fill="#ff37c7"/>
      <circle cx="150.0" cy="285.0" r="14.5" fill="#ff37c7"/>
      <circle cx="172.0" cy="368.0" r="10.0" fill="#ff37c7"/>
      <circle cx="176.0" cy="396.0" r="8.5" fill="#ff37c7"/>
      <path d="M167.0 393.5 h22.0 l2.0 19.0 q0 5 -5 5 h-18.0 q-5 0 -5 -5 z" fill="#ff37c7"/>

    <!-- ================= barrel =================
         The old one was 232 long by 152 deep sitting on 139 of visible leg:
         a ratio of 1.5 on a body that should be nearer 1.8, standing on legs
         shorter than it was deep. That is the whole reason it read as a blob
         on sticks, and no amount of colour was going to fix it.

         This one is 248 by 148 with 152 of leg under it — leg length about
         equal to barrel depth, which is what a horse actually is. The
         underline is deliberately not a symmetric arc: deepest at the girth
         a third back from the chest, then rising to a tucked flank. That
         slant is most of what makes a horse look like a horse. -->
    <!-- ================= body and neck, one outline =================
         These used to be two paths that overlapped: the neck's crest cut
         across the barrel's topline at about seventy degrees and left a hard
         notch at the withers — visible as a wedge of background bitten out of
         the shoulder. Two curves can be made to meet tangentially, but it is
         a fragile thing to hand-tune and it drifts the moment either shape
         moves.

         So there is no junction any more. One outline runs from the poll,
         down the throat, along the belly, up over the croup, forward across
         the back, and up the crest — and the withers is just a place on it.
         Continuity is a property of the path now rather than something two
         shapes have to agree about.

         Two edges still do opposite things, which is the whole of a horse's
         neck: the crest bows out over the top, the throat bows *in* below
         the jaw. -->
    <path d="M430 31
             L 436 76
             C 418 86, 398 106, 384 122
             C 368 142, 352 164, 344 186
             C 342 200, 340 212, 332 220
             C 318 230, 288 236, 254 238
             C 214 240, 174 234, 152 220
             C 140 208, 134 190, 138 172
             C 142 154, 156 143, 178 136
             C 212 127, 252 122, 284 118
             C 302 112, 314 102, 326 90
             C 344 68, 364 48, 386 37
             C 402 30, 418 28, 430 31 Z"
          fill="#ff37c7"/>
    <!-- The shading, the muscle highlights and the two contour grooves that
         used to live here are gone. Flat means flat: one tone, and the
         silhouette carries the form. Where an edge is genuinely needed it is
         cut as a gap in #bodyCut, not drawn as a line on top. -->

    <!-- ================= neck =================
         Convex along the crest, concave under the throat. The old one was
         near-parallel top and bottom, which is why it read as a tube. -->


    <!-- ================= head =================
         Everything that used to be a dark mark here is a hole now: eye,
         nostril, inner ear. A mask rather than an even-odd subpath, because
         the eye still has to blink and a mask lets that one shape keep its own
         transform. The skull has to be inside the masked group with the rest —
         left outside it, the eye punched a hole in nothing. -->
    <!-- head, horn and the horn's light in one group so the nod carries all
         three. The eye/nostril/ear cuts live in a userSpaceOnUse mask on the
         inner group, and a userSpaceOnUse mask resolves in the coordinate
         system the referencing element sits in — so it rotates with an
         ancestor transform and the eye stays in the skull. Verified rather
         than assumed. -->
    <g id="nk-head">
    <g mask="url(#headCut)">
      <path d="M424 32
               C 441 28, 454 38, 460 53
               C 466 69, 474 89, 480 105
               C 485 116, 480 126, 469 128
               C 458 130, 448 122, 442 110
               C 433 93, 425 76, 420 61
               C 416 48, 417 36, 424 32 Z"
            fill="#ff37c7"/>
      <path d="M470 104 C 483 104, 492 111, 492 119 C 492 127, 483 131, 473 129
               C 465 127, 459 121, 461 114 C 463 107, 466 105, 470 104 Z" fill="#ff37c7"/>
      <path d="M417 34 L408 2 L434 28 Z" fill="#ff37c7"/>
      <path d="M438 30 L442 4 L455 28 Z" fill="#ff37c7"/>
    </g>
    <!-- the glint, sitting inside the eye hole -->
    <circle cx="449" cy="61" r="2.7" fill="#ff37c7"/>

    <!-- ================= horn =================
         Longer and thinner than a real horn, which is how the reference draws
         it, and the spiral is three notches cut out of the pink rather than
         four lines ruled across it. -->
    <path d="M421 33 L447 24 L474 -46 Z" fill="#ff37c7" mask="url(#hornCut)"/>
    <!-- The horn tip is the one true point source in the drawing, so it gets
         what a point source gives you: a tight core over a long halo, plus the
         two streaks the eye reads as "too bright to look at". Screen-blended,
         so the mane brightens through it instead of being painted over. -->
    <g style="mix-blend-mode:screen">
      <circle cx="474" cy="-18" r="34" fill="url(#spark)" opacity="0.55"/>
      <circle cx="474" cy="-18" r="13" fill="url(#spark)" opacity="0.75"/>
      <rect x="428" y="-19.1" width="92" height="2.2" rx="1.1" fill="url(#streak)" opacity="0.7"/>
      <!-- shorter than its horizontal twin: rotated, a 92px streak would reach
           y=-64 and be sheared off by the frame at -56 -->
      <rect x="444" y="-19.1" width="60" height="2.2" rx="1.1" fill="url(#streak)" opacity="0.5"
            transform="rotate(90 474 -18)"/>
      <circle cx="474" cy="-18" r="3" fill="#ffffff" opacity="0.9"/>
    </g>
    </g><!-- /nk-head -->

  </g><!-- /masked body -->

    <!-- ================= mane =================
         Four calligraphic strands off the crest, each thick at the root and
         run out to a point, with real gaps between them. This is the single
         most recognisable thing about the reference mascot — its mane is a
         set of brush strokes, not a shaded mass — and it is the reason the
         logo still reads as a unicorn at 20px.

         Deliberately OUTSIDE the mask. No gap in #bodyCut touches the mane,
         and a child animating inside a masked group makes the browser redo
         the mask every frame — the wind would have been charging the whole
         body for something only four paths are doing. -->
    <!-- A mane drawn on the neck is a mane you cannot see: same colour, inside
         the same outline. It has to leave the silhouette. These three sweep
         back off the crest into the open dark above the withers, which is the
         only empty space adjacent to the neck — and a mane blown back happens
         to be what the reference does with its own strands. -->
    <g id="nk-mane">
      <!-- Lengths deliberately uneven and strand 3 crossing under strand 2.
           Four parallel ribbons ending on one diagonal read as a blade; hair
           does not do that. -->
      <path class="w1" d="M420 30
               C 358 22, 250 36, 180 58
               C 158 65, 144 70, 138 74
               C 158 72, 192 67, 222 64
               C 300 55, 382 43, 414 39
               C 418 36, 420 32, 420 30 Z" fill="#ff37c7"/>
      <path class="w2" d="M402 46
               C 352 46, 274 62, 212 86
               C 192 94, 174 101, 168 106
               C 188 101, 214 95, 238 90
               C 300 78, 360 64, 396 56
               C 400 52, 402 50, 402 46 Z" fill="#ff37c7"/>
      <path class="w3" d="M378 64
               C 322 68, 244 88, 176 110
               C 154 117, 138 123, 132 127
               C 154 122, 184 114, 212 107
               C 282 90, 346 76, 372 72
               C 376 70, 378 67, 378 64 Z" fill="#ff37c7"/>
      <path class="w4" d="M352 88
               C 312 92, 262 106, 224 120
               C 212 124, 204 127, 200 129
               C 216 125, 236 120, 254 116
               C 296 106, 336 96, 348 93
               C 351 91, 352 90, 352 88 Z" fill="#ff37c7"/>
    </g>

    <!-- ================= pawing fore leg — the page rebuilds this shape ====
         There used to be a second, static copy of this same leg drawn right
         here, from the same FORE skeleton, and it never moved. So the horse
         always had a foreleg standing on the ground: when the pawing limb
         lifted, the copy stayed behind. That is the leg that "stays put at
         the moment of impact" — not a fault in the animation, a duplicate
         underneath it. The animated one is the near fore; four legs total. -->
    <g id="nk-leg">
      <path class="nk-leg-shape" d="M299.1 198.0 L317.5 290.3 L317.0 367.6 L317.5 395.7 L332.5 396.3 L335.0 368.4 L342.5 289.7 L344.9 194.0 Z" fill="#ff37c7"/>
      <g class="nk-leg-caps"></g>
      <g id="nk-hoof" transform="translate(325 391)">
        <path d="M-11 2.5 h22 l2 19 q0 5 -5 5 h-18 q-5 0 -5 -5 z" fill="#ff37c7"/>
      </g>
    </g>
  </g>

  <ellipse id="nk-dust" cx="325" cy="420" rx="30" ry="8" fill="none"
           stroke="#ffd9f4" stroke-width="2.5" opacity="0"/>

  <g id="nk-impact" opacity="0" style="mix-blend-mode:screen">
    <ellipse cx="325" cy="418" rx="86" ry="22" fill="url(#pool)" opacity="0.35"/>
    <ellipse cx="325" cy="418" rx="44" ry="13" fill="url(#spark)" opacity="0.75"/>
    <g stroke="#ffe9fa" stroke-width="2.6" stroke-linecap="round" opacity="0.9">
      <path d="M292 412 L274 401"/><path d="M358 412 L376 401"/>
      <path d="M325 404 L325 386"/><path d="M305 408 L294 392"/><path d="M345 408 L356 392"/>
    </g>
  </g>

  </g><!-- /nk-idle -->

  <g id="nk-halos" style="mix-blend-mode:screen">
    <circle class="nk-halo" r="46.0" fill="url(#pool)" opacity="0"
            transform="translate(325 410) scale(0)"/>
    <circle class="nk-halo" r="39.1" fill="url(#pool)" opacity="0"
            transform="translate(325 410) scale(0)"/>
    <circle class="nk-halo" r="48.3" fill="url(#pool)" opacity="0"
            transform="translate(325 410) scale(0)"/>
    <circle class="nk-halo" r="36.8" fill="url(#pool)" opacity="0"
            transform="translate(325 410) scale(0)"/>
    <circle class="nk-halo" r="41.4" fill="url(#pool)" opacity="0"
            transform="translate(325 410) scale(0)"/>
    <circle class="nk-halo" r="34.5" fill="url(#pool)" opacity="0"
            transform="translate(325 410) scale(0)"/>
  </g>

  <g id="nk-coins">
    <g class="nk-coin" transform="translate(325 410) scale(0)" opacity="0">
      <circle r="22.9" fill="none" stroke="#141018" stroke-width="3.6"/>
      <circle r="20" fill="url(#coinFace)" stroke="#ff37c7" stroke-width="2.2"/>
      <circle r="13.5" fill="none" stroke="#fc72ff" stroke-width="1.1" opacity="0.5"/>
      <g transform="scale(0.967) translate(-12 -12)" fill="#ffe9fa">
        <use class="nk-glyph" href="#gl-AAPL"/>
      </g>
    </g>
    <g class="nk-coin" transform="translate(325 410) scale(0)" opacity="0">
      <circle r="19.9" fill="none" stroke="#141018" stroke-width="3.6"/>
      <circle r="17" fill="url(#coinFace)" stroke="#ff37c7" stroke-width="2.2"/>
      <circle r="10.5" fill="none" stroke="#fc72ff" stroke-width="1.1" opacity="0.5"/>
      <g transform="scale(0.822) translate(-12 -12)" fill="#ffe9fa">
        <use class="nk-glyph" href="#gl-AMD"/>
      </g>
    </g>
    <g class="nk-coin" transform="translate(325 410) scale(0)" opacity="0">
      <circle r="23.9" fill="none" stroke="#141018" stroke-width="3.6"/>
      <circle r="21" fill="url(#coinFace)" stroke="#ff37c7" stroke-width="2.2"/>
      <circle r="14.5" fill="none" stroke="#fc72ff" stroke-width="1.1" opacity="0.5"/>
      <g transform="scale(1.015) translate(-12 -12)" fill="#ffe9fa">
        <use class="nk-glyph" href="#gl-AMZN"/>
      </g>
    </g>
    <g class="nk-coin" transform="translate(325 410) scale(0)" opacity="0">
      <circle r="18.9" fill="none" stroke="#141018" stroke-width="3.6"/>
      <circle r="16" fill="url(#coinFace)" stroke="#ff37c7" stroke-width="2.2"/>
      <circle r="9.5" fill="none" stroke="#fc72ff" stroke-width="1.1" opacity="0.5"/>
      <g transform="scale(0.773) translate(-12 -12)" fill="#ffe9fa">
        <use class="nk-glyph" href="#gl-BTC"/>
      </g>
    </g>
    <g class="nk-coin" transform="translate(325 410) scale(0)" opacity="0">
      <circle r="20.9" fill="none" stroke="#141018" stroke-width="3.6"/>
      <circle r="18" fill="url(#coinFace)" stroke="#ff37c7" stroke-width="2.2"/>
      <circle r="11.5" fill="none" stroke="#fc72ff" stroke-width="1.1" opacity="0.5"/>
      <g transform="scale(0.870) translate(-12 -12)" fill="#ffe9fa">
        <use class="nk-glyph" href="#gl-COIN"/>
      </g>
    </g>
    <g class="nk-coin" transform="translate(325 410) scale(0)" opacity="0">
      <circle r="17.9" fill="none" stroke="#141018" stroke-width="3.6"/>
      <circle r="15" fill="url(#coinFace)" stroke="#ff37c7" stroke-width="2.2"/>
      <circle r="8.5" fill="none" stroke="#fc72ff" stroke-width="1.1" opacity="0.5"/>
      <g transform="scale(0.725) translate(-12 -12)" fill="#ffe9fa">
        <use class="nk-glyph" href="#gl-ETH"/>
      </g>
    </g>
  </g>
</svg>
