<svg xmlns="http://www.w3.org/2000/svg" viewBox="0 0 40 40" role="img" aria-label="GOOGL">
  <defs>
    <radialGradient id="g" cx="38%" cy="32%" r="72%">
      <stop offset="0%" stop-color="#163423"/>
      <stop offset="70%" stop-color="#0c1a12"/>
      <stop offset="100%" stop-color="#070f0a"/>
    </radialGradient>
  </defs>
  <circle cx="20" cy="20" r="19" fill="url(#g)" stroke="#2a6247" stroke-width="1.4"/>
  <circle cx="20" cy="20" r="19" fill="none" stroke="#23c76f" stroke-width="1.4"
          stroke-dasharray="7 5" opacity="0.45"/>
  <path d="M8 13 A19 19 0 0 1 27 4" stroke="#86d8a8" stroke-width="1.2" fill="none" opacity="0.28"/>
  <g transform="translate(9.8 9.8) scale(0.85)" fill="#d3f0e0">
    <path d="M12.48 10.92v3.28h7.84c-.24 1.84-.853 3.187-1.787 4.133-1.147 1.147-2.933 2.4-6.053 2.4-4.827 0-8.6-3.893-8.6-8.72s3.773-8.72 8.6-8.72c2.6 0 4.507 1.027 5.907 2.347l2.307-2.307C18.747 1.44 16.133 0 12.48 0 5.867 0 .307 5.387.307 12s5.56 12 12.173 12c3.573 0 6.267-1.173 8.373-3.36 2.16-2.16 2.84-5.213 2.84-7.667 0-.76-.053-1.467-.173-2.053H12.48z"/>
  </g>
</svg>
